<?xml version="1.0" encoding="utf-8"?>
<!-- Generator: Adobe Illustrator 24.3.0, SVG Export Plug-In . SVG Version: 6.00 Build 0)  -->
<svg version="1.1" id="Layer_1" xmlns="http://www.w3.org/2000/svg" xmlns:xlink="http://www.w3.org/1999/xlink" x="0px" y="0px"
	 viewBox="0 0 201.469 201.469" style="enable-background:new 0 0 201.469 201.469;" xml:space="preserve">
<g>
	<path d="M201.469,21.586v158.297c0,11.916-9.671,21.586-21.586,21.586h-38.722v-68.495h25.984l4.947-32.24h-30.931V79.801
		c0-8.819,4.322-17.417,18.177-17.417H173.4V34.951c0,0-12.763-2.177-24.968-2.177c-25.485,0-42.124,15.438-42.124,43.388v24.572
		H77.977v32.24h28.332v68.495H21.586C9.67,201.469,0,191.798,0,179.883V21.586C0,9.67,9.67,0,21.586,0h158.297
		C191.798,0,201.469,9.67,201.469,21.586z"/>
</g>
</svg>
