<svg xmlns="http://www.w3.org/2000/svg" viewBox="0 0 29.8 25.3"><path d="M2.8 8c1.8-3 5.1-5.6 9.7-8l.9 1.7C11 3.3 9.3 4.8 8.1 5.9c-2 2-3 3.9-3 5.6 0 .5.1 1 .4 1.3.3.3.7.5 1.3.5 1-.1 1.6-.2 1.9-.2 1.5 0 2.7.6 3.7 1.7s1.5 2.6 1.5 4.4c0 1.6-.5 3-1.6 4.2-1.1 1.2-2.7 1.9-4.7 1.9-2.3 0-4.1-.9-5.5-2.6-1.4-1.7-2-3.8-2-6.4C0 13.8.9 11 2.8 8zM18.7 8c1.8-3 5.1-5.6 9.7-8l.9 1.7c-2.4 1.7-4.1 3.1-5.2 4.3-2 2-3 3.9-3 5.6 0 .5.1 1 .4 1.3.3.3.7.5 1.3.5 1-.1 1.6-.2 1.9-.2 1.5 0 2.7.6 3.7 1.7s1.5 2.6 1.5 4.4c0 1.6-.5 3-1.6 4.2-1.1 1.2-2.7 1.9-4.7 1.9-2.3 0-4.1-.9-5.5-2.6-1.4-1.7-2-3.8-2-6.4-.2-2.6.8-5.4 2.6-8.4z"/></svg>