<?xml version="1.0" encoding="utf-8"?>
<!-- Generator: Adobe Illustrator 22.1.0, SVG Export Plug-In . SVG Version: 6.00 Build 0)  -->
<svg version="1.1" id="Layer_1" xmlns="http://www.w3.org/2000/svg" xmlns:xlink="http://www.w3.org/1999/xlink" x="0px" y="0px"
	 viewBox="0 0 29.8 25.3" style="enable-background:new 0 0 29.8 25.3;" xml:space="preserve">
<g>
	<path d="M2.8,8c1.8-3,5.1-5.6,9.7-8l0.9,1.7C11,3.3,9.3,4.8,8.1,5.9c-2,2-3,3.9-3,5.6c0,0.5,0.1,1,0.4,1.3c0.3,0.3,0.7,0.5,1.3,0.5
		c1-0.1,1.6-0.2,1.9-0.2c1.5,0,2.7,0.6,3.7,1.7c1,1.1,1.5,2.6,1.5,4.4c0,1.6-0.5,3-1.6,4.2c-1.1,1.2-2.7,1.9-4.7,1.9
		c-2.3,0-4.1-0.9-5.5-2.6c-1.4-1.7-2-3.8-2-6.4C0,13.8,0.9,11,2.8,8z"/>
</g>
<g>
	<path d="M18.7,8c1.8-3,5.1-5.6,9.7-8l0.9,1.7c-2.4,1.7-4.1,3.1-5.2,4.3c-2,2-3,3.9-3,5.6c0,0.5,0.1,1,0.4,1.3
		c0.3,0.3,0.7,0.5,1.3,0.5c1-0.1,1.6-0.2,1.9-0.2c1.5,0,2.7,0.6,3.7,1.7c1,1.1,1.5,2.6,1.5,4.4c0,1.6-0.5,3-1.6,4.2
		c-1.1,1.2-2.7,1.9-4.7,1.9c-2.3,0-4.1-0.9-5.5-2.6c-1.4-1.7-2-3.8-2-6.4C15.9,13.8,16.9,11,18.7,8z"/>
</g>
</svg>
