<?xml version="1.0" encoding="utf-8"?>
<!-- Generator: Adobe Illustrator 22.0.1, SVG Export Plug-In . SVG Version: 6.00 Build 0)  -->
<svg version="1.1" id="Layer_1" xmlns="http://www.w3.org/2000/svg" xmlns:xlink="http://www.w3.org/1999/xlink" x="0px" y="0px"
	 viewBox="0 0 24 19.5" style="enable-background:new 0 0 24 19.5;" xml:space="preserve">
<style type="text/css">
	.st0{fill:#FFFFFF;}
</style>
<path class="st0" d="M24,2.3c-0.9,0.4-1.8,0.7-2.8,0.8c1-0.6,1.8-1.6,2.2-2.7c-1,0.6-2,1-3.1,1.2C19.3,0.6,18,0,16.6,0
	c-3.2,0-5.5,3-4.8,6C7.7,5.8,4.1,3.9,1.7,0.9C0.4,3.1,1,6,3.2,7.5C2.4,7.4,1.6,7.2,1,6.9c-0.1,2.3,1.6,4.4,3.9,4.9
	c-0.7,0.2-1.5,0.2-2.2,0.1c0.6,2,2.4,3.4,4.6,3.4c-2.1,1.6-4.7,2.3-7.3,2c2.2,1.4,4.8,2.2,7.5,2.2c9.1,0,14.3-7.7,14-14.6
	C22.5,4.2,23.3,3.3,24,2.3z"/>
</svg>
